<svg width="667" height="270" viewBox="0 0 667 270" fill="none" xmlns="http://www.w3.org/2000/svg">
<path d="M23.624 225.632C23.32 226.656 22.84 227.512 22.184 228.2C21.528 228.888 20.752 229.4 19.856 229.736C18.96 230.072 17.976 230.24 16.904 230.24C15.336 230.24 13.976 229.912 12.824 229.256C11.688 228.6 10.808 227.664 10.184 226.448C9.576 225.232 9.272 223.776 9.272 222.08C9.272 220.384 9.576 218.928 10.184 217.712C10.808 216.496 11.688 215.56 12.824 214.904C13.976 214.248 15.32 213.92 16.856 213.92C17.944 213.92 18.928 214.072 19.808 214.376C20.688 214.664 21.432 215.112 22.04 215.72C22.664 216.328 23.12 217.096 23.408 218.024L20.408 219.296C20.136 218.336 19.72 217.656 19.16 217.256C18.6 216.84 17.88 216.632 17 216.632C16.136 216.632 15.376 216.84 14.72 217.256C14.08 217.672 13.584 218.288 13.232 219.104C12.88 219.904 12.704 220.896 12.704 222.08C12.704 223.248 12.864 224.24 13.184 225.056C13.52 225.872 14.008 226.488 14.648 226.904C15.288 227.32 16.072 227.528 17 227.528C17.864 227.528 18.608 227.296 19.232 226.832C19.872 226.368 20.32 225.664 20.576 224.72L23.624 225.632ZM26.1108 230V218H28.9668L29.1828 220.352C29.5028 219.52 29.9668 218.88 30.5748 218.432C31.1988 217.984 31.9748 217.76 32.9028 217.76C33.1748 217.76 33.4228 217.784 33.6468 217.832C33.8708 217.88 34.0548 217.944 34.1988 218.024L33.8148 220.784C33.6548 220.72 33.4548 220.672 33.2148 220.64C32.9908 220.608 32.6948 220.592 32.3268 220.592C31.8468 220.592 31.3828 220.712 30.9348 220.952C30.4868 221.176 30.1188 221.528 29.8308 222.008C29.5428 222.472 29.3988 223.064 29.3988 223.784V230H26.1108ZM41.5694 230.24C40.3054 230.24 39.2014 229.992 38.2574 229.496C37.3294 229 36.6094 228.288 36.0974 227.36C35.5854 226.432 35.3294 225.312 35.3294 224C35.3294 222.688 35.5854 221.568 36.0974 220.64C36.6094 219.712 37.3214 219 38.2334 218.504C39.1614 218.008 40.2174 217.76 41.4014 217.76C42.6174 217.76 43.6494 218.008 44.4974 218.504C45.3454 218.984 45.9934 219.648 46.4414 220.496C46.8894 221.328 47.1134 222.28 47.1134 223.352C47.1134 223.672 47.1054 223.976 47.0894 224.264C47.0734 224.552 47.0494 224.808 47.0174 225.032H37.4414V222.752H45.5774L43.9934 223.328C43.9934 222.32 43.7614 221.544 43.2974 221C42.8494 220.456 42.2094 220.184 41.3774 220.184C40.7694 220.184 40.2414 220.328 39.7934 220.616C39.3614 220.904 39.0334 221.336 38.8094 221.912C38.5854 222.472 38.4734 223.184 38.4734 224.048C38.4734 224.896 38.5934 225.6 38.8334 226.16C39.0894 226.704 39.4414 227.112 39.8894 227.384C40.3534 227.656 40.9054 227.792 41.5454 227.792C42.2494 227.792 42.8174 227.656 43.2494 227.384C43.6814 227.112 44.0174 226.736 44.2574 226.256L46.8734 227.264C46.6174 227.888 46.2254 228.424 45.6974 228.872C45.1854 229.32 44.5694 229.664 43.8494 229.904C43.1454 230.128 42.3854 230.24 41.5694 230.24ZM56.7399 222.344C56.7399 221.656 56.5399 221.12 56.1399 220.736C55.7559 220.352 55.2439 220.16 54.6039 220.16C54.0119 220.16 53.4919 220.312 53.0439 220.616C52.5959 220.92 52.2679 221.424 52.0599 222.128L49.2519 221.264C49.5239 220.208 50.1159 219.36 51.0279 218.72C51.9559 218.08 53.1959 217.76 54.7479 217.76C55.8039 217.76 56.7239 217.928 57.5079 218.264C58.2919 218.584 58.8999 219.072 59.3319 219.728C59.7799 220.384 60.0039 221.208 60.0039 222.2V227.072C60.0039 227.68 60.2919 227.984 60.8679 227.984C61.1399 227.984 61.3959 227.944 61.6359 227.864L61.4439 229.904C61.0279 230.112 60.5079 230.216 59.8839 230.216C59.3239 230.216 58.8199 230.12 58.3719 229.928C57.9239 229.736 57.5719 229.448 57.3159 229.064C57.0599 228.664 56.9319 228.168 56.9319 227.576V227.48L57.5079 227.384C57.4119 227.992 57.1479 228.512 56.7159 228.944C56.2839 229.36 55.7559 229.68 55.1319 229.904C54.5239 230.128 53.8919 230.24 53.2359 230.24C52.4199 230.24 51.7159 230.12 51.1239 229.88C50.5319 229.624 50.0759 229.256 49.7559 228.776C49.4359 228.296 49.2759 227.704 49.2759 227C49.2759 226.104 49.5639 225.376 50.1399 224.816C50.7159 224.24 51.5399 223.848 52.6119 223.64L57.1239 222.728L57.0999 224.768L54.2199 225.344C53.6759 225.456 53.2599 225.608 52.9719 225.8C52.6999 225.976 52.5639 226.272 52.5639 226.688C52.5639 227.088 52.7079 227.392 52.9959 227.6C53.2999 227.808 53.6599 227.912 54.0759 227.912C54.4119 227.912 54.7399 227.872 55.0599 227.792C55.3799 227.712 55.6679 227.584 55.9239 227.408C56.1799 227.232 56.3799 226.992 56.5239 226.688C56.6679 226.384 56.7399 226.016 56.7399 225.584V222.344ZM67.4604 214.328V226.088C67.4604 226.664 67.6044 227.088 67.8924 227.36C68.1964 227.616 68.6044 227.744 69.1164 227.744C69.5164 227.744 69.8684 227.688 70.1724 227.576C70.4764 227.448 70.7484 227.28 70.9884 227.072L71.5164 229.256C71.1324 229.56 70.6524 229.8 70.0764 229.976C69.5004 230.152 68.8924 230.24 68.2524 230.24C67.4524 230.24 66.7404 230.12 66.1164 229.88C65.5084 229.64 65.0284 229.256 64.6764 228.728C64.3404 228.2 64.1724 227.496 64.1724 226.616V215.24L67.4604 214.328ZM71.3004 218V220.448H61.9644V218H71.3004ZM79.0929 230.24C77.8289 230.24 76.7249 229.992 75.7809 229.496C74.8529 229 74.1329 228.288 73.6209 227.36C73.1089 226.432 72.8529 225.312 72.8529 224C72.8529 222.688 73.1089 221.568 73.6209 220.64C74.1329 219.712 74.8449 219 75.7569 218.504C76.6849 218.008 77.7409 217.76 78.9249 217.76C80.1409 217.76 81.1729 218.008 82.0209 218.504C82.8689 218.984 83.5169 219.648 83.9649 220.496C84.4129 221.328 84.6369 222.28 84.6369 223.352C84.6369 223.672 84.6289 223.976 84.6129 224.264C84.5969 224.552 84.5729 224.808 84.5409 225.032H74.9649V222.752H83.1009L81.5169 223.328C81.5169 222.32 81.2849 221.544 80.8209 221C80.3729 220.456 79.7329 220.184 78.9009 220.184C78.2929 220.184 77.7649 220.328 77.3169 220.616C76.8849 220.904 76.5569 221.336 76.3329 221.912C76.1089 222.472 75.9969 223.184 75.9969 224.048C75.9969 224.896 76.1169 225.6 76.3569 226.16C76.6129 226.704 76.9649 227.112 77.4129 227.384C77.8769 227.656 78.4289 227.792 79.0689 227.792C79.7729 227.792 80.3409 227.656 80.7729 227.384C81.2049 227.112 81.5409 226.736 81.7809 226.256L84.3969 227.264C84.1409 227.888 83.7489 228.424 83.2209 228.872C82.7089 229.32 82.0929 229.664 81.3729 229.904C80.6689 230.128 79.9089 230.24 79.0929 230.24ZM101.743 214.16C102.959 214.16 103.999 214.368 104.863 214.784C105.727 215.184 106.391 215.768 106.855 216.536C107.335 217.288 107.575 218.2 107.575 219.272C107.575 220.344 107.335 221.264 106.855 222.032C106.391 222.784 105.727 223.368 104.863 223.784C103.999 224.184 102.959 224.384 101.743 224.384H98.4073V230H95.0953V214.16H101.743ZM101.239 221.768C102.231 221.768 102.975 221.56 103.471 221.144C103.967 220.712 104.215 220.088 104.215 219.272C104.215 218.44 103.967 217.816 103.471 217.4C102.975 216.984 102.231 216.776 101.239 216.776H98.4073V221.768H101.239ZM110.275 230V218H113.131L113.347 220.352C113.667 219.52 114.131 218.88 114.739 218.432C115.363 217.984 116.139 217.76 117.067 217.76C117.339 217.76 117.587 217.784 117.811 217.832C118.035 217.88 118.219 217.944 118.363 218.024L117.979 220.784C117.819 220.72 117.619 220.672 117.379 220.64C117.155 220.608 116.859 220.592 116.491 220.592C116.011 220.592 115.547 220.712 115.099 220.952C114.651 221.176 114.283 221.528 113.995 222.008C113.707 222.472 113.563 223.064 113.563 223.784V230H110.275ZM125.638 217.76C126.854 217.76 127.918 218.008 128.83 218.504C129.758 219 130.478 219.712 130.99 220.64C131.518 221.568 131.782 222.688 131.782 224C131.782 225.296 131.518 226.416 130.99 227.36C130.478 228.288 129.758 229 128.83 229.496C127.918 229.992 126.854 230.24 125.638 230.24C124.438 230.24 123.374 229.992 122.446 229.496C121.518 229 120.79 228.288 120.262 227.36C119.75 226.416 119.494 225.296 119.494 224C119.494 222.688 119.75 221.568 120.262 220.64C120.79 219.712 121.518 219 122.446 218.504C123.374 218.008 124.438 217.76 125.638 217.76ZM125.638 220.208C125.03 220.208 124.51 220.352 124.078 220.64C123.662 220.912 123.342 221.328 123.118 221.888C122.894 222.448 122.782 223.152 122.782 224C122.782 224.848 122.894 225.552 123.118 226.112C123.342 226.672 123.662 227.096 124.078 227.384C124.51 227.656 125.03 227.792 125.638 227.792C126.23 227.792 126.734 227.656 127.15 227.384C127.582 227.096 127.91 226.672 128.134 226.112C128.358 225.552 128.47 224.848 128.47 224C128.47 223.152 128.358 222.448 128.134 221.888C127.91 221.328 127.582 220.912 127.15 220.64C126.734 220.352 126.23 220.208 125.638 220.208ZM139.768 212.504C140.328 212.504 140.832 212.568 141.28 212.696C141.744 212.808 142.088 212.952 142.312 213.128L141.856 215.312C141.68 215.2 141.48 215.112 141.256 215.048C141.032 214.984 140.768 214.952 140.464 214.952C139.84 214.952 139.344 215.096 138.976 215.384C138.608 215.656 138.424 216.128 138.424 216.8V218.456L138.568 219.104V230H135.28V216.56C135.28 215.888 135.392 215.296 135.616 214.784C135.84 214.272 136.152 213.848 136.552 213.512C136.952 213.176 137.424 212.928 137.968 212.768C138.528 212.592 139.128 212.504 139.768 212.504ZM142.216 218V220.448H133.192V218H142.216ZM145.84 216.272C145.152 216.272 144.64 216.128 144.304 215.84C143.968 215.536 143.8 215.096 143.8 214.52C143.8 213.928 143.968 213.488 144.304 213.2C144.64 212.896 145.152 212.744 145.84 212.744C146.528 212.744 147.04 212.896 147.376 213.2C147.712 213.488 147.88 213.928 147.88 214.52C147.88 215.096 147.712 215.536 147.376 215.84C147.04 216.128 146.528 216.272 145.84 216.272ZM147.472 218V230H144.184V218H147.472ZM154.202 212.744V226.304C154.202 226.864 154.298 227.256 154.49 227.48C154.682 227.704 155.002 227.816 155.45 227.816C155.722 227.816 155.946 227.8 156.122 227.768C156.298 227.72 156.522 227.656 156.794 227.576L156.506 229.736C156.234 229.896 155.89 230.016 155.474 230.096C155.074 230.192 154.674 230.24 154.274 230.24C153.106 230.24 152.25 229.96 151.706 229.4C151.178 228.824 150.914 227.912 150.914 226.664V212.744H154.202ZM164.194 230.24C162.93 230.24 161.826 229.992 160.882 229.496C159.954 229 159.234 228.288 158.722 227.36C158.21 226.432 157.954 225.312 157.954 224C157.954 222.688 158.21 221.568 158.722 220.64C159.234 219.712 159.946 219 160.858 218.504C161.786 218.008 162.842 217.76 164.026 217.76C165.242 217.76 166.274 218.008 167.122 218.504C167.97 218.984 168.618 219.648 169.066 220.496C169.514 221.328 169.738 222.28 169.738 223.352C169.738 223.672 169.73 223.976 169.714 224.264C169.698 224.552 169.674 224.808 169.642 225.032H160.066V222.752H168.202L166.618 223.328C166.618 222.32 166.386 221.544 165.922 221C165.474 220.456 164.834 220.184 164.002 220.184C163.394 220.184 162.866 220.328 162.418 220.616C161.986 220.904 161.658 221.336 161.434 221.912C161.21 222.472 161.098 223.184 161.098 224.048C161.098 224.896 161.218 225.6 161.458 226.16C161.714 226.704 162.066 227.112 162.514 227.384C162.978 227.656 163.53 227.792 164.17 227.792C164.874 227.792 165.442 227.656 165.874 227.384C166.306 227.112 166.642 226.736 166.882 226.256L169.498 227.264C169.242 227.888 168.85 228.424 168.322 228.872C167.81 229.32 167.194 229.664 166.474 229.904C165.77 230.128 165.01 230.24 164.194 230.24Z" fill="#00237E"/>
<path d="M306.832 201.92C308.272 201.92 309.536 202.168 310.624 202.664C311.712 203.16 312.64 203.896 313.408 204.872L311.56 207.008C310.904 206.176 310.184 205.568 309.4 205.184C308.632 204.784 307.736 204.584 306.712 204.584C306.04 204.584 305.48 204.672 305.032 204.848C304.6 205.024 304.28 205.256 304.072 205.544C303.88 205.832 303.784 206.152 303.784 206.504C303.784 206.936 303.952 207.304 304.288 207.608C304.624 207.896 305.2 208.136 306.016 208.328L308.968 209C310.536 209.352 311.656 209.88 312.328 210.584C313.016 211.272 313.36 212.168 313.36 213.272C313.36 214.312 313.088 215.208 312.544 215.96C312 216.696 311.24 217.264 310.264 217.664C309.288 218.048 308.168 218.24 306.904 218.24C305.8 218.24 304.784 218.112 303.856 217.856C302.944 217.584 302.128 217.216 301.408 216.752C300.688 216.288 300.088 215.752 299.608 215.144L301.48 212.912C301.848 213.424 302.304 213.88 302.848 214.28C303.392 214.68 304.008 215 304.696 215.24C305.4 215.464 306.136 215.576 306.904 215.576C307.56 215.576 308.112 215.504 308.56 215.36C309.024 215.2 309.368 214.984 309.592 214.712C309.832 214.424 309.952 214.08 309.952 213.68C309.952 213.264 309.808 212.912 309.52 212.624C309.248 212.32 308.736 212.088 307.984 211.928L304.768 211.208C303.84 210.984 303.04 210.696 302.368 210.344C301.712 209.976 301.208 209.512 300.856 208.952C300.52 208.376 300.352 207.696 300.352 206.912C300.352 205.968 300.608 205.12 301.12 204.368C301.632 203.616 302.368 203.024 303.328 202.592C304.304 202.144 305.472 201.92 306.832 201.92ZM320.263 218.24C319.463 218.24 318.743 218.096 318.103 217.808C317.463 217.52 316.951 217.064 316.567 216.44C316.199 215.8 316.015 214.976 316.015 213.968V206H319.303V213.176C319.303 214.104 319.495 214.752 319.879 215.12C320.263 215.472 320.815 215.648 321.535 215.648C321.871 215.648 322.199 215.592 322.519 215.48C322.839 215.352 323.119 215.16 323.359 214.904C323.615 214.648 323.815 214.32 323.959 213.92C324.103 213.504 324.175 213.016 324.175 212.456V206H327.463V218H324.535L324.415 215.912C324.015 216.712 323.463 217.304 322.759 217.688C322.071 218.056 321.239 218.24 320.263 218.24ZM337.979 218.24C337.243 218.24 336.571 218.088 335.963 217.784C335.371 217.464 334.875 217.032 334.475 216.488C334.091 215.928 333.827 215.304 333.683 214.616L334.019 214.184L333.827 218H330.923V200.744H334.211V209.384L333.899 208.88C334.155 207.984 334.643 207.24 335.363 206.648C336.083 206.056 336.987 205.76 338.075 205.76C339.019 205.76 339.875 206.008 340.643 206.504C341.411 207 342.011 207.712 342.443 208.64C342.891 209.568 343.115 210.696 343.115 212.024C343.115 213.32 342.891 214.432 342.443 215.36C342.011 216.288 341.403 217 340.619 217.496C339.851 217.992 338.971 218.24 337.979 218.24ZM336.995 215.72C337.875 215.72 338.563 215.408 339.059 214.784C339.571 214.144 339.827 213.216 339.827 212C339.827 210.784 339.579 209.864 339.083 209.24C338.587 208.6 337.899 208.28 337.019 208.28C336.443 208.28 335.947 208.432 335.531 208.736C335.115 209.04 334.787 209.472 334.547 210.032C334.323 210.592 334.211 211.256 334.211 212.024C334.211 212.808 334.323 213.48 334.547 214.04C334.787 214.584 335.115 215 335.531 215.288C335.963 215.576 336.451 215.72 336.995 215.72ZM345.97 218V206H348.922L349.042 208.16C349.442 207.36 349.986 206.76 350.674 206.36C351.378 205.96 352.154 205.76 353.002 205.76C353.866 205.76 354.642 205.96 355.33 206.36C356.034 206.76 356.562 207.352 356.914 208.136C357.17 207.608 357.514 207.168 357.946 206.816C358.378 206.464 358.858 206.2 359.386 206.024C359.914 205.848 360.45 205.76 360.994 205.76C361.778 205.76 362.49 205.92 363.13 206.24C363.786 206.56 364.306 207.04 364.69 207.68C365.074 208.32 365.266 209.136 365.266 210.128V218H361.978V210.776C361.978 209.896 361.786 209.272 361.402 208.904C361.018 208.536 360.522 208.352 359.914 208.352C359.434 208.352 358.986 208.472 358.57 208.712C358.17 208.952 357.85 209.312 357.61 209.792C357.386 210.256 357.274 210.84 357.274 211.544V218H353.986V210.776C353.986 209.896 353.786 209.272 353.386 208.904C353.002 208.536 352.506 208.352 351.898 208.352C351.482 208.352 351.066 208.464 350.65 208.688C350.25 208.912 349.914 209.264 349.642 209.744C349.386 210.224 349.258 210.856 349.258 211.64V218H345.97ZM370.314 204.272C369.626 204.272 369.114 204.128 368.778 203.84C368.442 203.536 368.274 203.096 368.274 202.52C368.274 201.928 368.442 201.488 368.778 201.2C369.114 200.896 369.626 200.744 370.314 200.744C371.002 200.744 371.514 200.896 371.85 201.2C372.186 201.488 372.354 201.928 372.354 202.52C372.354 203.096 372.186 203.536 371.85 203.84C371.514 204.128 371.002 204.272 370.314 204.272ZM371.946 206V218H368.658V206H371.946ZM379.679 202.328V214.088C379.679 214.664 379.823 215.088 380.111 215.36C380.415 215.616 380.823 215.744 381.335 215.744C381.735 215.744 382.087 215.688 382.391 215.576C382.695 215.448 382.967 215.28 383.207 215.072L383.735 217.256C383.351 217.56 382.871 217.8 382.295 217.976C381.719 218.152 381.111 218.24 380.471 218.24C379.671 218.24 378.959 218.12 378.335 217.88C377.727 217.64 377.247 217.256 376.895 216.728C376.559 216.2 376.391 215.496 376.391 214.616V203.24L379.679 202.328ZM383.519 206V208.448H374.183V206H383.519ZM290.414 242H286.982L285.662 238.136H279.59L278.27 242H274.886L280.67 226.16H284.63L290.414 242ZM280.334 235.688H284.918L282.614 228.776L280.334 235.688ZM292.427 247.04V230H295.379L295.595 233.816L295.187 233.384C295.331 232.68 295.595 232.056 295.979 231.512C296.379 230.968 296.883 230.544 297.491 230.24C298.099 229.92 298.779 229.76 299.531 229.76C300.507 229.76 301.379 230.008 302.147 230.504C302.915 231 303.515 231.712 303.947 232.64C304.395 233.552 304.619 234.664 304.619 235.976C304.619 237.288 304.395 238.416 303.947 239.36C303.499 240.288 302.883 241 302.099 241.496C301.331 241.992 300.451 242.24 299.459 242.24C298.403 242.24 297.523 241.944 296.819 241.352C296.131 240.76 295.659 240.016 295.403 239.12L295.715 238.616V247.04H292.427ZM298.499 239.72C299.379 239.72 300.067 239.408 300.563 238.784C301.075 238.144 301.331 237.216 301.331 236C301.331 234.784 301.083 233.864 300.587 233.24C300.107 232.6 299.427 232.28 298.547 232.28C297.987 232.28 297.491 232.432 297.059 232.736C296.643 233.024 296.315 233.448 296.075 234.008C295.835 234.552 295.715 235.216 295.715 236C295.715 236.768 295.827 237.432 296.051 237.992C296.275 238.552 296.595 238.984 297.011 239.288C297.443 239.576 297.939 239.72 298.499 239.72ZM307.474 247.04V230H310.426L310.642 233.816L310.234 233.384C310.378 232.68 310.642 232.056 311.026 231.512C311.426 230.968 311.93 230.544 312.538 230.24C313.146 229.92 313.826 229.76 314.578 229.76C315.554 229.76 316.426 230.008 317.194 230.504C317.962 231 318.562 231.712 318.994 232.64C319.442 233.552 319.666 234.664 319.666 235.976C319.666 237.288 319.442 238.416 318.994 239.36C318.546 240.288 317.93 241 317.146 241.496C316.378 241.992 315.498 242.24 314.506 242.24C313.45 242.24 312.57 241.944 311.866 241.352C311.178 240.76 310.706 240.016 310.45 239.12L310.762 238.616V247.04H307.474ZM313.546 239.72C314.426 239.72 315.114 239.408 315.61 238.784C316.122 238.144 316.378 237.216 316.378 236C316.378 234.784 316.13 233.864 315.634 233.24C315.154 232.6 314.474 232.28 313.594 232.28C313.034 232.28 312.538 232.432 312.106 232.736C311.69 233.024 311.362 233.448 311.122 234.008C310.882 234.552 310.762 235.216 310.762 236C310.762 236.768 310.874 237.432 311.098 237.992C311.322 238.552 311.642 238.984 312.058 239.288C312.49 239.576 312.986 239.72 313.546 239.72ZM325.761 224.744V238.304C325.761 238.864 325.857 239.256 326.049 239.48C326.241 239.704 326.561 239.816 327.009 239.816C327.281 239.816 327.505 239.8 327.681 239.768C327.857 239.72 328.081 239.656 328.353 239.576L328.065 241.736C327.793 241.896 327.449 242.016 327.033 242.096C326.633 242.192 326.233 242.24 325.833 242.24C324.665 242.24 323.809 241.96 323.265 241.4C322.737 240.824 322.473 239.912 322.473 238.664V224.744H325.761ZM331.841 228.272C331.153 228.272 330.641 228.128 330.305 227.84C329.969 227.536 329.801 227.096 329.801 226.52C329.801 225.928 329.969 225.488 330.305 225.2C330.641 224.896 331.153 224.744 331.841 224.744C332.529 224.744 333.041 224.896 333.377 225.2C333.713 225.488 333.881 225.928 333.881 226.52C333.881 227.096 333.713 227.536 333.377 227.84C333.041 228.128 332.529 228.272 331.841 228.272ZM333.473 230V242H330.185V230H333.473ZM342.406 229.76C343.478 229.76 344.382 229.92 345.118 230.24C345.87 230.544 346.47 230.968 346.918 231.512C347.382 232.04 347.71 232.632 347.902 233.288L344.83 234.392C344.67 233.672 344.398 233.128 344.014 232.76C343.63 232.392 343.11 232.208 342.454 232.208C341.846 232.208 341.326 232.352 340.894 232.64C340.462 232.912 340.134 233.336 339.91 233.912C339.686 234.472 339.574 235.176 339.574 236.024C339.574 236.872 339.686 237.576 339.91 238.136C340.15 238.696 340.486 239.112 340.918 239.384C341.366 239.656 341.886 239.792 342.478 239.792C342.958 239.792 343.366 239.712 343.702 239.552C344.038 239.376 344.31 239.128 344.518 238.808C344.742 238.488 344.894 238.104 344.974 237.656L347.95 238.616C347.774 239.336 347.446 239.968 346.966 240.512C346.486 241.056 345.87 241.48 345.118 241.784C344.366 242.088 343.494 242.24 342.502 242.24C341.27 242.24 340.182 241.992 339.238 241.496C338.294 241 337.566 240.288 337.054 239.36C336.542 238.432 336.286 237.312 336.286 236C336.286 234.688 336.542 233.568 337.054 232.64C337.566 231.712 338.286 231 339.214 230.504C340.142 230.008 341.206 229.76 342.406 229.76ZM357.345 234.344C357.345 233.656 357.145 233.12 356.745 232.736C356.361 232.352 355.849 232.16 355.209 232.16C354.617 232.16 354.097 232.312 353.649 232.616C353.201 232.92 352.873 233.424 352.665 234.128L349.857 233.264C350.129 232.208 350.721 231.36 351.633 230.72C352.561 230.08 353.801 229.76 355.353 229.76C356.409 229.76 357.329 229.928 358.113 230.264C358.897 230.584 359.505 231.072 359.937 231.728C360.385 232.384 360.609 233.208 360.609 234.2V239.072C360.609 239.68 360.897 239.984 361.473 239.984C361.745 239.984 362.001 239.944 362.241 239.864L362.049 241.904C361.633 242.112 361.113 242.216 360.489 242.216C359.929 242.216 359.425 242.12 358.977 241.928C358.529 241.736 358.177 241.448 357.921 241.064C357.665 240.664 357.537 240.168 357.537 239.576V239.48L358.113 239.384C358.017 239.992 357.753 240.512 357.321 240.944C356.889 241.36 356.361 241.68 355.737 241.904C355.129 242.128 354.497 242.24 353.841 242.24C353.025 242.24 352.321 242.12 351.729 241.88C351.137 241.624 350.681 241.256 350.361 240.776C350.041 240.296 349.881 239.704 349.881 239C349.881 238.104 350.169 237.376 350.745 236.816C351.321 236.24 352.145 235.848 353.217 235.64L357.729 234.728L357.705 236.768L354.825 237.344C354.281 237.456 353.865 237.608 353.577 237.8C353.305 237.976 353.169 238.272 353.169 238.688C353.169 239.088 353.313 239.392 353.601 239.6C353.905 239.808 354.265 239.912 354.681 239.912C355.017 239.912 355.345 239.872 355.665 239.792C355.985 239.712 356.273 239.584 356.529 239.408C356.785 239.232 356.985 238.992 357.129 238.688C357.273 238.384 357.345 238.016 357.345 237.584V234.344ZM368.066 226.328V238.088C368.066 238.664 368.21 239.088 368.498 239.36C368.802 239.616 369.21 239.744 369.722 239.744C370.122 239.744 370.474 239.688 370.778 239.576C371.082 239.448 371.354 239.28 371.594 239.072L372.122 241.256C371.738 241.56 371.258 241.8 370.682 241.976C370.106 242.152 369.498 242.24 368.858 242.24C368.058 242.24 367.346 242.12 366.722 241.88C366.114 241.64 365.634 241.256 365.282 240.728C364.946 240.2 364.778 239.496 364.778 238.616V227.24L368.066 226.328ZM371.906 230V232.448H362.57V230H371.906ZM375.786 228.272C375.098 228.272 374.586 228.128 374.25 227.84C373.914 227.536 373.746 227.096 373.746 226.52C373.746 225.928 373.914 225.488 374.25 225.2C374.586 224.896 375.098 224.744 375.786 224.744C376.474 224.744 376.986 224.896 377.322 225.2C377.658 225.488 377.826 225.928 377.826 226.52C377.826 227.096 377.658 227.536 377.322 227.84C376.986 228.128 376.474 228.272 375.786 228.272ZM377.418 230V242H374.13V230H377.418ZM386.376 229.76C387.592 229.76 388.656 230.008 389.568 230.504C390.496 231 391.216 231.712 391.728 232.64C392.256 233.568 392.52 234.688 392.52 236C392.52 237.296 392.256 238.416 391.728 239.36C391.216 240.288 390.496 241 389.568 241.496C388.656 241.992 387.592 242.24 386.376 242.24C385.176 242.24 384.112 241.992 383.184 241.496C382.256 241 381.528 240.288 381 239.36C380.488 238.416 380.232 237.296 380.232 236C380.232 234.688 380.488 233.568 381 232.64C381.528 231.712 382.256 231 383.184 230.504C384.112 230.008 385.176 229.76 386.376 229.76ZM386.376 232.208C385.768 232.208 385.248 232.352 384.816 232.64C384.4 232.912 384.08 233.328 383.856 233.888C383.632 234.448 383.52 235.152 383.52 236C383.52 236.848 383.632 237.552 383.856 238.112C384.08 238.672 384.4 239.096 384.816 239.384C385.248 239.656 385.768 239.792 386.376 239.792C386.968 239.792 387.472 239.656 387.888 239.384C388.32 239.096 388.648 238.672 388.872 238.112C389.096 237.552 389.208 236.848 389.208 236C389.208 235.152 389.096 234.448 388.872 233.888C388.648 233.328 388.32 232.912 387.888 232.64C387.472 232.352 386.968 232.208 386.376 232.208ZM395.271 242V230H398.223L398.415 233.6L398.007 233.216C398.199 232.432 398.503 231.784 398.919 231.272C399.335 230.76 399.839 230.384 400.431 230.144C401.039 229.888 401.703 229.76 402.423 229.76C403.255 229.76 403.991 229.92 404.631 230.24C405.287 230.56 405.799 231.048 406.167 231.704C406.551 232.344 406.743 233.152 406.743 234.128V242H403.455V235.064C403.455 234.04 403.255 233.336 402.855 232.952C402.455 232.552 401.935 232.352 401.295 232.352C400.847 232.352 400.407 232.464 399.975 232.688C399.559 232.896 399.215 233.24 398.943 233.72C398.687 234.2 398.559 234.84 398.559 235.64V242H395.271Z" fill="#00237E"/>
<path d="M530.322 222.24C528.866 222.24 527.586 221.92 526.482 221.28C525.394 220.64 524.546 219.712 523.938 218.496C523.33 217.28 523.026 215.816 523.026 214.104C523.026 212.408 523.346 210.952 523.986 209.736C524.626 208.504 525.53 207.56 526.698 206.904C527.882 206.248 529.25 205.92 530.802 205.92C532.514 205.92 533.898 206.24 534.954 206.88C536.01 207.504 536.85 208.48 537.474 209.808L534.402 211.128C534.146 210.28 533.706 209.656 533.082 209.256C532.474 208.84 531.722 208.632 530.826 208.632C529.93 208.632 529.154 208.848 528.498 209.28C527.842 209.696 527.338 210.312 526.986 211.128C526.634 211.928 526.458 212.912 526.458 214.08C526.458 215.28 526.626 216.296 526.962 217.128C527.298 217.944 527.794 218.56 528.45 218.976C529.122 219.376 529.946 219.576 530.922 219.576C531.45 219.576 531.938 219.512 532.386 219.384C532.85 219.256 533.25 219.064 533.586 218.808C533.922 218.552 534.186 218.224 534.378 217.824C534.57 217.424 534.666 216.96 534.666 216.432V216.072H530.514V213.648H537.522V222H535.194L534.954 218.544L535.53 218.952C535.178 220.008 534.554 220.824 533.658 221.4C532.778 221.96 531.666 222.24 530.322 222.24ZM546.394 222.24C545.13 222.24 544.026 221.992 543.082 221.496C542.154 221 541.434 220.288 540.922 219.36C540.41 218.432 540.154 217.312 540.154 216C540.154 214.688 540.41 213.568 540.922 212.64C541.434 211.712 542.146 211 543.058 210.504C543.986 210.008 545.042 209.76 546.226 209.76C547.442 209.76 548.474 210.008 549.322 210.504C550.17 210.984 550.818 211.648 551.266 212.496C551.714 213.328 551.938 214.28 551.938 215.352C551.938 215.672 551.93 215.976 551.914 216.264C551.898 216.552 551.874 216.808 551.842 217.032H542.266V214.752H550.402L548.818 215.328C548.818 214.32 548.586 213.544 548.122 213C547.674 212.456 547.034 212.184 546.202 212.184C545.594 212.184 545.066 212.328 544.618 212.616C544.186 212.904 543.858 213.336 543.634 213.912C543.41 214.472 543.298 215.184 543.298 216.048C543.298 216.896 543.418 217.6 543.658 218.16C543.914 218.704 544.266 219.112 544.714 219.384C545.178 219.656 545.73 219.792 546.37 219.792C547.074 219.792 547.642 219.656 548.074 219.384C548.506 219.112 548.842 218.736 549.082 218.256L551.698 219.264C551.442 219.888 551.05 220.424 550.522 220.872C550.01 221.32 549.394 221.664 548.674 221.904C547.97 222.128 547.21 222.24 546.394 222.24ZM558.761 206.328V218.088C558.761 218.664 558.905 219.088 559.193 219.36C559.497 219.616 559.905 219.744 560.417 219.744C560.817 219.744 561.169 219.688 561.473 219.576C561.777 219.448 562.049 219.28 562.289 219.072L562.817 221.256C562.433 221.56 561.953 221.8 561.377 221.976C560.801 222.152 560.193 222.24 559.553 222.24C558.753 222.24 558.041 222.12 557.417 221.88C556.809 221.64 556.329 221.256 555.977 220.728C555.641 220.2 555.473 219.496 555.473 218.616V207.24L558.761 206.328ZM562.601 210V212.448H553.265V210H562.601ZM584.421 206.16L578.805 216.072V222H575.493V216.072L569.877 206.16H573.405L575.949 210.912L577.149 213.384L578.373 210.912L580.917 206.16H584.421ZM589.563 209.76C590.779 209.76 591.843 210.008 592.755 210.504C593.683 211 594.403 211.712 594.915 212.64C595.443 213.568 595.707 214.688 595.707 216C595.707 217.296 595.443 218.416 594.915 219.36C594.403 220.288 593.683 221 592.755 221.496C591.843 221.992 590.779 222.24 589.563 222.24C588.363 222.24 587.299 221.992 586.371 221.496C585.443 221 584.715 220.288 584.187 219.36C583.675 218.416 583.419 217.296 583.419 216C583.419 214.688 583.675 213.568 584.187 212.64C584.715 211.712 585.443 211 586.371 210.504C587.299 210.008 588.363 209.76 589.563 209.76ZM589.563 212.208C588.955 212.208 588.435 212.352 588.003 212.64C587.587 212.912 587.267 213.328 587.043 213.888C586.819 214.448 586.707 215.152 586.707 216C586.707 216.848 586.819 217.552 587.043 218.112C587.267 218.672 587.587 219.096 588.003 219.384C588.435 219.656 588.955 219.792 589.563 219.792C590.155 219.792 590.659 219.656 591.075 219.384C591.507 219.096 591.835 218.672 592.059 218.112C592.283 217.552 592.395 216.848 592.395 216C592.395 215.152 592.283 214.448 592.059 213.888C591.835 213.328 591.507 212.912 591.075 212.64C590.659 212.352 590.155 212.208 589.563 212.208ZM602.634 222.24C601.834 222.24 601.114 222.096 600.474 221.808C599.834 221.52 599.322 221.064 598.938 220.44C598.57 219.8 598.386 218.976 598.386 217.968V210H601.674V217.176C601.674 218.104 601.866 218.752 602.25 219.12C602.634 219.472 603.186 219.648 603.906 219.648C604.242 219.648 604.57 219.592 604.89 219.48C605.21 219.352 605.49 219.16 605.73 218.904C605.986 218.648 606.186 218.32 606.33 217.92C606.474 217.504 606.546 217.016 606.546 216.456V210H609.834V222H606.906L606.786 219.912C606.386 220.712 605.834 221.304 605.13 221.688C604.442 222.056 603.61 222.24 602.634 222.24ZM613.294 222V210H616.15L616.366 212.352C616.686 211.52 617.15 210.88 617.758 210.432C618.382 209.984 619.158 209.76 620.086 209.76C620.358 209.76 620.606 209.784 620.83 209.832C621.054 209.88 621.238 209.944 621.382 210.024L620.998 212.784C620.838 212.72 620.638 212.672 620.398 212.64C620.174 212.608 619.878 212.592 619.51 212.592C619.03 212.592 618.566 212.712 618.118 212.952C617.67 213.176 617.302 213.528 617.014 214.008C616.726 214.472 616.582 215.064 616.582 215.784V222H613.294ZM535.953 229.92C537.393 229.92 538.657 230.168 539.745 230.664C540.833 231.16 541.761 231.896 542.529 232.872L540.681 235.008C540.025 234.176 539.305 233.568 538.521 233.184C537.753 232.784 536.857 232.584 535.833 232.584C535.161 232.584 534.601 232.672 534.153 232.848C533.721 233.024 533.401 233.256 533.193 233.544C533.001 233.832 532.905 234.152 532.905 234.504C532.905 234.936 533.073 235.304 533.409 235.608C533.745 235.896 534.321 236.136 535.137 236.328L538.089 237C539.657 237.352 540.777 237.88 541.449 238.584C542.137 239.272 542.481 240.168 542.481 241.272C542.481 242.312 542.209 243.208 541.665 243.96C541.121 244.696 540.361 245.264 539.385 245.664C538.409 246.048 537.289 246.24 536.025 246.24C534.921 246.24 533.905 246.112 532.977 245.856C532.065 245.584 531.249 245.216 530.529 244.752C529.809 244.288 529.209 243.752 528.729 243.144L530.601 240.912C530.969 241.424 531.425 241.88 531.969 242.28C532.513 242.68 533.129 243 533.817 243.24C534.521 243.464 535.257 243.576 536.025 243.576C536.681 243.576 537.233 243.504 537.681 243.36C538.145 243.2 538.489 242.984 538.713 242.712C538.953 242.424 539.073 242.08 539.073 241.68C539.073 241.264 538.929 240.912 538.641 240.624C538.369 240.32 537.857 240.088 537.105 239.928L533.889 239.208C532.961 238.984 532.161 238.696 531.489 238.344C530.833 237.976 530.329 237.512 529.977 236.952C529.641 236.376 529.473 235.696 529.473 234.912C529.473 233.968 529.729 233.12 530.241 232.368C530.753 231.616 531.489 231.024 532.449 230.592C533.425 230.144 534.593 229.92 535.953 229.92ZM550.847 246.24C549.583 246.24 548.479 245.992 547.535 245.496C546.607 245 545.887 244.288 545.375 243.36C544.863 242.432 544.607 241.312 544.607 240C544.607 238.688 544.863 237.568 545.375 236.64C545.887 235.712 546.599 235 547.511 234.504C548.439 234.008 549.495 233.76 550.679 233.76C551.895 233.76 552.927 234.008 553.775 234.504C554.623 234.984 555.271 235.648 555.719 236.496C556.167 237.328 556.391 238.28 556.391 239.352C556.391 239.672 556.383 239.976 556.367 240.264C556.351 240.552 556.327 240.808 556.295 241.032H546.719V238.752H554.855L553.271 239.328C553.271 238.32 553.039 237.544 552.575 237C552.127 236.456 551.487 236.184 550.655 236.184C550.047 236.184 549.519 236.328 549.071 236.616C548.639 236.904 548.311 237.336 548.087 237.912C547.863 238.472 547.751 239.184 547.751 240.048C547.751 240.896 547.871 241.6 548.111 242.16C548.367 242.704 548.719 243.112 549.167 243.384C549.631 243.656 550.183 243.792 550.823 243.792C551.527 243.792 552.095 243.656 552.527 243.384C552.959 243.112 553.295 242.736 553.535 242.256L556.151 243.264C555.895 243.888 555.503 244.424 554.975 244.872C554.463 245.32 553.847 245.664 553.127 245.904C552.423 246.128 551.663 246.24 550.847 246.24ZM559.177 246V234H562.033L562.249 236.352C562.569 235.52 563.033 234.88 563.641 234.432C564.265 233.984 565.041 233.76 565.969 233.76C566.241 233.76 566.489 233.784 566.713 233.832C566.937 233.88 567.121 233.944 567.265 234.024L566.881 236.784C566.721 236.72 566.521 236.672 566.281 236.64C566.057 236.608 565.761 236.592 565.393 236.592C564.913 236.592 564.449 236.712 564.001 236.952C563.553 237.176 563.185 237.528 562.897 238.008C562.609 238.472 562.465 239.064 562.465 239.784V246H559.177ZM577.174 234H580.582L576.022 246H572.23L567.67 234H571.174L574.15 243.48L577.174 234ZM584.06 232.272C583.372 232.272 582.86 232.128 582.524 231.84C582.188 231.536 582.02 231.096 582.02 230.52C582.02 229.928 582.188 229.488 582.524 229.2C582.86 228.896 583.372 228.744 584.06 228.744C584.748 228.744 585.26 228.896 585.596 229.2C585.932 229.488 586.1 229.928 586.1 230.52C586.1 231.096 585.932 231.536 585.596 231.84C585.26 232.128 584.748 232.272 584.06 232.272ZM585.692 234V246H582.404V234H585.692ZM594.625 233.76C595.697 233.76 596.601 233.92 597.337 234.24C598.089 234.544 598.689 234.968 599.137 235.512C599.601 236.04 599.929 236.632 600.121 237.288L597.049 238.392C596.889 237.672 596.617 237.128 596.233 236.76C595.849 236.392 595.329 236.208 594.673 236.208C594.065 236.208 593.545 236.352 593.113 236.64C592.681 236.912 592.353 237.336 592.129 237.912C591.905 238.472 591.793 239.176 591.793 240.024C591.793 240.872 591.905 241.576 592.129 242.136C592.369 242.696 592.705 243.112 593.137 243.384C593.585 243.656 594.105 243.792 594.697 243.792C595.177 243.792 595.585 243.712 595.921 243.552C596.257 243.376 596.529 243.128 596.737 242.808C596.961 242.488 597.113 242.104 597.193 241.656L600.169 242.616C599.993 243.336 599.665 243.968 599.185 244.512C598.705 245.056 598.089 245.48 597.337 245.784C596.585 246.088 595.713 246.24 594.721 246.24C593.489 246.24 592.401 245.992 591.457 245.496C590.513 245 589.785 244.288 589.273 243.36C588.761 242.432 588.505 241.312 588.505 240C588.505 238.688 588.761 237.568 589.273 236.64C589.785 235.712 590.505 235 591.433 234.504C592.361 234.008 593.425 233.76 594.625 233.76ZM608.292 246.24C607.028 246.24 605.924 245.992 604.98 245.496C604.052 245 603.332 244.288 602.82 243.36C602.308 242.432 602.052 241.312 602.052 240C602.052 238.688 602.308 237.568 602.82 236.64C603.332 235.712 604.044 235 604.956 234.504C605.884 234.008 606.94 233.76 608.124 233.76C609.34 233.76 610.372 234.008 611.22 234.504C612.068 234.984 612.716 235.648 613.164 236.496C613.612 237.328 613.836 238.28 613.836 239.352C613.836 239.672 613.828 239.976 613.812 240.264C613.796 240.552 613.772 240.808 613.74 241.032H604.164V238.752H612.3L610.716 239.328C610.716 238.32 610.484 237.544 610.02 237C609.572 236.456 608.932 236.184 608.1 236.184C607.492 236.184 606.964 236.328 606.516 236.616C606.084 236.904 605.756 237.336 605.532 237.912C605.308 238.472 605.196 239.184 605.196 240.048C605.196 240.896 605.316 241.6 605.556 242.16C605.812 242.704 606.164 243.112 606.612 243.384C607.076 243.656 607.628 243.792 608.268 243.792C608.972 243.792 609.54 243.656 609.972 243.384C610.404 243.112 610.74 242.736 610.98 242.256L613.596 243.264C613.34 243.888 612.948 244.424 612.42 244.872C611.908 245.32 611.292 245.664 610.572 245.904C609.868 246.128 609.108 246.24 608.292 246.24Z" fill="#00237E"/>
<path d="M254.547 89L243 77.453L231.453 89L243 100.547L254.547 89ZM179 91H243V87H179V91Z" fill="#00237E"/>
<path d="M498.547 89L487 77.453L475.453 89L487 100.547L498.547 89ZM423 91H487V87H423V91Z" fill="#00237E"/>
<path d="M178.5 89C178.5 137.875 138.656 177.5 89.5 177.5C40.344 177.5 0.5 137.875 0.5 89C0.5 40.1254 40.344 0.5 89.5 0.5C138.656 0.5 178.5 40.1254 178.5 89Z" fill="white" stroke="#00237E"/>
<path d="M97.8889 69.5556C97.8889 73.6811 96.25 77.6378 93.3328 80.555C90.4155 83.4722 86.4589 85.1111 82.3333 85.1111C78.2077 85.1111 74.2511 83.4722 71.3339 80.555C68.4167 77.6378 66.7778 73.6811 66.7778 69.5556C66.7778 65.43 68.4167 61.4733 71.3339 58.5561C74.2511 55.6389 78.2077 54 82.3333 54C86.4589 54 90.4155 55.6389 93.3328 58.5561C96.25 61.4733 97.8889 65.43 97.8889 69.5556ZM59 120.111C59 113.923 61.4583 107.988 65.8342 103.612C70.21 99.2361 76.1449 96.7778 82.3333 96.7778C88.5217 96.7778 94.4566 99.2361 98.8325 103.612C103.208 107.988 105.667 113.923 105.667 120.111V124H59V120.111Z" fill="white"/>
<path d="M117.333 77.3333V89M117.333 89V100.667M117.333 89H129M117.333 89H105.667M97.8889 69.5556C97.8889 73.6811 96.25 77.6378 93.3328 80.555C90.4155 83.4722 86.4589 85.1111 82.3333 85.1111C78.2077 85.1111 74.2511 83.4722 71.3339 80.555C68.4167 77.6378 66.7778 73.6811 66.7778 69.5556C66.7778 65.43 68.4167 61.4733 71.3339 58.5561C74.2511 55.6389 78.2077 54 82.3333 54C86.4589 54 90.4155 55.6389 93.3328 58.5561C96.25 61.4733 97.8889 65.43 97.8889 69.5556ZM59 120.111C59 113.923 61.4583 107.988 65.8342 103.612C70.21 99.2361 76.1449 96.7778 82.3333 96.7778C88.5217 96.7778 94.4566 99.2361 98.8325 103.612C103.208 107.988 105.667 113.923 105.667 120.111V124H59V120.111Z" stroke="#00237E" stroke-width="4" stroke-linecap="round" stroke-linejoin="round"/>
<path d="M422.5 89C422.5 137.875 382.656 177.5 333.5 177.5C284.344 177.5 244.5 137.875 244.5 89C244.5 40.1254 284.344 0.5 333.5 0.5C382.656 0.5 422.5 40.1254 422.5 89Z" fill="white" stroke="#00237E"/>
<path d="M361.222 124H306.778C304.715 124 302.737 123.078 301.278 121.437C299.819 119.796 299 117.571 299 115.25V62.75C299 60.4294 299.819 58.2038 301.278 56.5628C302.737 54.9219 304.715 54 306.778 54H345.667C347.729 54 349.708 54.9219 351.166 56.5628C352.625 58.2038 353.444 60.4294 353.444 62.75V67.125M361.222 124C359.159 124 357.181 123.078 355.723 121.437C354.264 119.796 353.444 117.571 353.444 115.25V67.125M361.222 124C363.285 124 365.263 123.078 366.722 121.437C368.181 119.796 369 117.571 369 115.25V75.875C369 73.5544 368.181 71.3288 366.722 69.6878C365.263 68.0469 363.285 67.125 361.222 67.125H353.444M314.556 71.5H337.889V89H314.556V71.5Z" fill="#00237E"/>
<path d="M361.222 124H306.778C304.715 124 302.737 123.078 301.278 121.437C299.819 119.796 299 117.571 299 115.25V62.75C299 60.4294 299.819 58.2038 301.278 56.5628C302.737 54.9219 304.715 54 306.778 54H345.667C347.729 54 349.708 54.9219 351.166 56.5628C352.625 58.2038 353.444 60.4294 353.444 62.75V67.125M361.222 124C359.159 124 357.181 123.078 355.723 121.437C354.264 119.796 353.444 117.571 353.444 115.25V67.125M361.222 124C363.285 124 365.263 123.078 366.722 121.437C368.181 119.796 369 117.571 369 115.25V75.875C369 73.5544 368.181 71.3288 366.722 69.6878C365.263 68.0469 363.285 67.125 361.222 67.125H353.444M337.889 54H322.333M314.556 106.5H337.889M314.556 71.5H337.889V89H314.556V71.5Z" stroke="white" stroke-width="2" stroke-linecap="round" stroke-linejoin="round"/>
<path d="M666.5 89C666.5 137.875 626.656 177.5 577.5 177.5C528.344 177.5 488.5 137.875 488.5 89C488.5 40.1254 528.344 0.5 577.5 0.5C626.656 0.5 666.5 40.1254 666.5 89Z" fill="white" stroke="#00237E"/>
<path d="M553 54C550.348 54 547.804 55.0536 545.929 56.9289C544.054 58.8043 543 61.3478 543 64V74C543 76.6522 544.054 79.1957 545.929 81.0711C547.804 82.9464 550.348 84 553 84H563C565.652 84 568.196 82.9464 570.071 81.0711C571.946 79.1957 573 76.6522 573 74V64C573 61.3478 571.946 58.8043 570.071 56.9289C568.196 55.0536 565.652 54 563 54H553ZM553 94C550.348 94 547.804 95.0536 545.929 96.9289C544.054 98.8043 543 101.348 543 104V114C543 116.652 544.054 119.196 545.929 121.071C547.804 122.946 550.348 124 553 124H563C565.652 124 568.196 122.946 570.071 121.071C571.946 119.196 573 116.652 573 114V104C573 101.348 571.946 98.8043 570.071 96.9289C568.196 95.0536 565.652 94 563 94H553ZM583 64C583 61.3478 584.054 58.8043 585.929 56.9289C587.804 55.0536 590.348 54 593 54H603C605.652 54 608.196 55.0536 610.071 56.9289C611.946 58.8043 613 61.3478 613 64V74C613 76.6522 611.946 79.1957 610.071 81.0711C608.196 82.9464 605.652 84 603 84H593C590.348 84 587.804 82.9464 585.929 81.0711C584.054 79.1957 583 76.6522 583 74V64ZM583 104C583 101.348 584.054 98.8043 585.929 96.9289C587.804 95.0536 590.348 94 593 94H603C605.652 94 608.196 95.0536 610.071 96.9289C611.946 98.8043 613 101.348 613 104V114C613 116.652 611.946 119.196 610.071 121.071C608.196 122.946 605.652 124 603 124H593C590.348 124 587.804 122.946 585.929 121.071C584.054 119.196 583 116.652 583 114V104Z" fill="#00237E"/>
</svg>
